{
  "source": "C:\\Users\\Peter\\Desktop\\stuff\\MIUN\\quantitative_research\\video_compression\\videos\\BVI-HD\\BVI-HD_CDVL_videos\\ORIG\\BallUnderWater_1920x1080_60fps.mp4",
  "output": "C:\\Users\\Peter\\Desktop\\stuff\\MIUN\\quantitative_research\\video_compression\\compressed_videos\\BVI-HD\\h264\\4\\BallUnderWater_1920x1080_60fps_h264.mp4",
  "codec": "h264",
  "ok": "Input #0, mov,mp4,m4a,3gp,3g2,mj2, from 'C:\\Users\\Peter\\Desktop\\stuff\\MIUN\\quantitative_research\\video_compression\\videos\\BVI-HD\\BVI-HD_CDVL_videos\\ORIG\\BallUnderWater_1920x1080_60fps.mp4':\n  Metadata:\n    major_brand     : isom\n    minor_version   : 512\n    compatible_brands: isomiso2avc1mp41\n    encoder         : Lavf54.28.101\n  Duration: 00:00:05.00, start: 0.000000, bitrate: 212030 kb/s\n  Stream #0:0[0x1](und): Video: h264 (High 4:4:4 Predictive) (avc1 / 0x31637661), yuv420p(progressive), 1920x1080, 212025 kb/s, 60 fps, 60 tbr, 60 tbn (default)\n    Metadata:\n      handler_name    : VideoHandler\n      vendor_id       : [0][0][0][0]\n[out#0/mp4 @ 00000208e8041700] Codec AVOption b:a (set bitrate (in bits/s)) has not been used for any stream. The most likely reason is either wrong type (e.g. a video option with no video streams) or that it is a private option of some decoder which was not actually used for any stream.\nStream mapping:\n  Stream #0:0 -> #0:0 (h264 (native) -> h264 (libx264))\nPress [q] to stop, [?] for help\n[libx264 @ 00000208e860eb80] using cpu capabilities: MMX2 SSE2Fast SSSE3 SSE4.2 AVX FMA3 BMI2 AVX2\n[libx264 @ 00000208e860eb80] profile High, level 5.0, 4:2:0, 8-bit\n[libx264 @ 00000208e860eb80] 264 - core 165 r3222 b35605a - H.264/MPEG-4 AVC codec - Copyleft 2003-2025 - http://www.videolan.org/x264.html - options: cabac=1 ref=5 deblock=1:0:0 analyse=0x3:0x113 me=hex subme=8 psy=1 psy_rd=1.00:0.00 mixed_ref=1 me_range=16 chroma_me=1 trellis=2 8x8dct=1 cqm=0 deadzone=21,11 fast_pskip=1 chroma_qp_offset=-2 threads=18 lookahead_threads=3 sliced_threads=0 nr=0 decimate=1 interlaced=0 bluray_compat=0 constrained_intra=0 bframes=3 b_pyramid=2 b_adapt=1 b_bias=0 direct=3 weightb=1 open_gop=0 weightp=2 keyint=250 keyint_min=25 scenecut=40 intra_refresh=0 rc_lookahead=50 rc=cbr mbtree=1 bitrate=4000 ratetol=1.0 qcomp=0.60 qpmin=0 qpmax=69 qpstep=4 vbv_maxrate=4000 vbv_bufsize=4000 nal_hrd=none filler=0 ip_ratio=1.40 aq=1:1.00\nOutput #0, mp4, to 'C:\\Users\\Peter\\Desktop\\stuff\\MIUN\\quantitative_research\\video_compression\\compressed_videos\\BVI-HD\\h264\\4\\BallUnderWater_1920x1080_60fps_h264.mp4':\n  Metadata:\n    major_brand     : isom\n    minor_version   : 512\n    compatible_brands: isomiso2avc1mp41\n    encoder         : Lavf62.3.100\n  Stream #0:0(und): Video: h264 (avc1 / 0x31637661), yuv420p(tv, progressive), 1920x1080, q=2-31, 4000 kb/s, 60 fps, 15360 tbn (default)\n    Metadata:\n      encoder         : Lavc62.11.100 libx264\n      handler_name    : VideoHandler\n      vendor_id       : [0][0][0][0]\n    Side data:\n      cpb: bitrate max/min/avg: 4000000/0/4000000 buffer size: 4000000 vbv_delay: N/A\nframe=    0 fps=0.0 q=0.0 size=       0KiB time=N/A bitrate=N/A speed=N/A elapsed=0:00:00.50    \nframe=    0 fps=0.0 q=0.0 size=       0KiB time=N/A bitrate=N/A speed=N/A elapsed=0:00:01.08    \nframe=    0 fps=0.0 q=0.0 size=       0KiB time=N/A bitrate=N/A speed=N/A elapsed=0:00:01.64    \nframe=    0 fps=0.0 q=0.0 size=       0KiB time=N/A bitrate=N/A speed=N/A elapsed=0:00:02.20    \nframe=    6 fps=2.1 q=39.0 size=       0KiB time=00:00:00.06 bitrate=   5.8kbits/s speed=0.0236x elapsed=0:00:02.83    \nframe=    8 fps=2.4 q=38.0 size=       0KiB time=00:00:00.10 bitrate=   3.8kbits/s speed=0.0299x elapsed=0:00:03.34    \nframe=   11 fps=2.8 q=38.0 size=       0KiB time=00:00:00.15 bitrate=   2.6kbits/s speed=0.0386x elapsed=0:00:03.88    \nframe=   21 fps=4.7 q=38.0 size=       0KiB time=00:00:00.31 bitrate=   1.2kbits/s speed=0.0704x elapsed=0:00:04.50    \nframe=   39 fps=7.6 q=37.0 size=     256KiB time=00:00:00.58 bitrate=3595.8kbits/s speed=0.114x elapsed=0:00:05.10    \nframe=   57 fps=9.8 q=37.0 size=     256KiB time=00:00:00.80 bitrate=2621.9kbits/s speed=0.138x elapsed=0:00:05.80    \nframe=   60 fps=9.1 q=36.0 size=     256KiB time=00:00:00.96 bitrate=2169.9kbits/s speed=0.147x elapsed=0:00:06.59    \nframe=   62 fps=8.7 q=37.0 size=     256KiB time=00:00:01.00 bitrate=2097.5kbits/s speed=0.14x elapsed=0:00:07.12    \nframe=   71 fps=9.3 q=37.0 size=     512KiB time=00:00:01.15 bitrate=3647.6kbits/s speed=0.15x elapsed=0:00:07.64    \nframe=   75 fps=9.2 q=36.0 size=     512KiB time=00:00:01.21 bitrate=3447.7kbits/s speed=0.148x elapsed=0:00:08.19    \nframe=   83 fps=9.5 q=36.0 size=     512KiB time=00:00:01.35 bitrate=3107.2kbits/s speed=0.154x elapsed=0:00:08.76    \nframe=   91 fps=9.8 q=36.0 size=     512KiB time=00:00:01.46 bitrate=2860.0kbits/s speed=0.157x elapsed=0:00:09.32    \nframe=  101 fps= 10 q=36.0 size=     768KiB time=00:00:01.63 bitrate=3852.1kbits/s speed=0.164x elapsed=0:00:09.97    \nframe=  110 fps= 10 q=36.0 size=     768KiB time=00:00:01.78 bitrate=3528.1kbits/s speed=0.169x elapsed=0:00:10.53    \nframe=  117 fps= 11 q=36.0 size=     768KiB time=00:00:01.91 bitrate=3282.7kbits/s speed=0.172x elapsed=0:00:11.11    \nframe=  126 fps= 11 q=36.0 size=     768KiB time=00:00:02.05 bitrate=3069.2kbits/s speed=0.175x elapsed=0:00:11.71    \nframe=  134 fps= 11 q=36.0 size=    1024KiB time=00:00:02.18 bitrate=3842.3kbits/s speed=0.178x elapsed=0:00:12.29    \nframe=  142 fps= 11 q=36.0 size=    1024KiB time=00:00:02.33 bitrate=3595.3kbits/s speed=0.182x elapsed=0:00:12.84    \nframe=  151 fps= 11 q=36.0 size=    1024KiB time=00:00:02.48 bitrate=3378.1kbits/s speed=0.185x elapsed=0:00:13.40    \nframe=  158 fps= 11 q=36.0 size=    1024KiB time=00:00:02.60 bitrate=3226.5kbits/s speed=0.187x elapsed=0:00:13.92    \nframe=  164 fps= 11 q=36.0 size=    1280KiB time=00:00:02.70 bitrate=3883.8kbits/s speed=0.187x elapsed=0:00:14.46    \nframe=  173 fps= 12 q=36.0 size=    1280KiB time=00:00:02.83 bitrate=3701.0kbits/s speed=0.189x elapsed=0:00:15.02    \nframe=  181 fps= 12 q=36.0 size=    1280KiB time=00:00:02.98 bitrate=3514.9kbits/s speed=0.191x elapsed=0:00:15.61    \nframe=  189 fps= 12 q=36.0 size=    1280KiB time=00:00:03.11 bitrate=3364.5kbits/s speed=0.193x elapsed=0:00:16.14    \nframe=  200 fps= 12 q=36.0 size=    1536KiB time=00:00:03.28 bitrate=3832.5kbits/s speed=0.197x elapsed=0:00:16.69    \nframe=  205 fps= 12 q=36.0 size=    1536KiB time=00:00:03.38 bitrate=3719.2kbits/s speed=0.195x elapsed=0:00:17.34    \nframe=  213 fps= 12 q=37.0 size=    1536KiB time=00:00:03.51 bitrate=3578.2kbits/s speed=0.197x elapsed=0:00:17.87    \nframe=  222 fps= 12 q=37.0 size=    1792KiB time=00:00:03.63 bitrate=4040.5kbits/s speed=0.197x elapsed=0:00:18.40    \nframe=  233 fps= 12 q=37.0 size=    1792KiB time=00:00:03.81 bitrate=3846.4kbits/s speed= 0.2x elapsed=0:00:19.10    \nframe=  254 fps= 13 q=37.0 size=    2048KiB time=00:00:04.18 bitrate=4010.6kbits/s speed=0.21x elapsed=0:00:19.89    \nframe=  272 fps= 13 q=37.0 size=    2048KiB time=00:00:04.50 bitrate=3728.4kbits/s speed=0.219x elapsed=0:00:20.54    \nframe=  291 fps= 14 q=-1.0 size=    2304KiB time=00:00:04.81 bitrate=3918.6kbits/s speed=0.227x elapsed=0:00:21.21    \n[mp4 @ 00000208e8039980] Starting second pass: moving the moov atom to the beginning of the file\n[out#0/mp4 @ 00000208e8041700] video:2433KiB audio:0KiB subtitle:0KiB other streams:0KiB global headers:0KiB muxing overhead: 0.110586%\nframe=  300 fps= 14 q=-1.0 Lsize=    2436KiB time=00:00:04.96 bitrate=4017.2kbits/s speed=0.232x elapsed=0:00:21.41    \n[libx264 @ 00000208e860eb80] frame I:3     Avg QP:29.87  size: 17447\n[libx264 @ 00000208e860eb80] frame P:238   Avg QP:32.59  size:  8763\n[libx264 @ 00000208e860eb80] frame B:59    Avg QP:34.69  size:  5974\n[libx264 @ 00000208e860eb80] consecutive B-frames: 73.3%  0.7%  2.0% 24.0%\n[libx264 @ 00000208e860eb80] mb I  I16..4: 61.9% 37.2%  0.9%\n[libx264 @ 00000208e860eb80] mb P  I16..4: 24.2% 16.0%  0.1%  P16..4: 20.2%  0.9%  0.4%  0.0%  0.0%    skip:38.3%\n[libx264 @ 00000208e860eb80] mb B  I16..4:  4.1%  3.1%  0.0%  B16..8: 32.7%  1.6%  0.1%  direct: 0.5%  skip:57.9%  L0:51.2% L1:46.5% BI: 2.2%\n[libx264 @ 00000208e860eb80] 8x8 transform intra:39.8% inter:89.8%\n[libx264 @ 00000208e860eb80] direct mvs  spatial:84.7% temporal:15.3%\n[libx264 @ 00000208e860eb80] coded y,uvDC,uvAC intra: 3.2% 19.4% 0.4% inter: 2.3% 7.2% 0.0%\n[libx264 @ 00000208e860eb80] i16 v,h,dc,p: 26% 26% 11% 38%\n[libx264 @ 00000208e860eb80] i8 v,h,dc,ddl,ddr,vr,hd,vl,hu:  3%  3% 77%  1%  5%  3%  4%  1%  2%\n[libx264 @ 00000208e860eb80] i4 v,h,dc,ddl,ddr,vr,hd,vl,hu:  4%  3% 68%  4%  6%  3%  4%  3%  5%\n[libx264 @ 00000208e860eb80] i8c dc,h,v,p: 84% 11%  5%  1%\n[libx264 @ 00000208e860eb80] Weighted P-Frames: Y:5.9% UV:2.1%\n[libx264 @ 00000208e860eb80] ref P L0: 51.5%  8.8% 18.5%  8.6%  7.0%  5.4%  0.3%\n[libx264 @ 00000208e860eb80] ref B L0: 73.2% 16.7%  7.7%  2.4%\n[libx264 @ 00000208e860eb80] ref B L1: 92.1%  7.9%\n[libx264 @ 00000208e860eb80] kb/s:3984.80\n",
  "seconds": 22.097403287887573,
  "probe_out": {}
}